<?xml version="1.0" encoding="utf-8"?>
<!-- Generator: Adobe Illustrator 24.2.3, SVG Export Plug-In . SVG Version: 6.00 Build 0)  -->
<svg version="1.1" id="Layer_1" xmlns="http://www.w3.org/2000/svg" xmlns:xlink="http://www.w3.org/1999/xlink" x="0px" y="0px"
	 viewBox="0 0 720 720" enable-background="new 0 0 720 720" xml:space="preserve">
<g id="Facebook">
	<g>
		<defs>
			<rect id="SVGID_1_" x="-0.5" y="-0.9" width="720.5" height="720.5"/>
		</defs>
		<clipPath id="SVGID_2_">
			<use xlink:href="#SVGID_1_"  overflow="visible"/>
		</clipPath>
		<path clip-path="url(#SVGID_2_)" fill="#4267B2" d="M680.2-0.9h-641C17.3-0.8-0.5,17-0.5,38.9v641c0,21.9,17.8,39.7,39.8,39.7h641
			c22,0,39.8-17.8,39.8-39.8c0,0,0,0,0,0v-641C720,16.9,702.2-0.9,680.2-0.9L680.2-0.9z M680.2-0.9"/>
	</g>
	<path fill="#FFFFFF" d="M497,719.6V441h93.9L605,332H497v-69.5c0-31.5,8.7-53,53.9-53h57.3v-97.3c-10-1.3-44.1-4.3-83.9-4.3
		c-83,0-139.8,50.7-139.8,143.7V332h-93.6V441h93.6v278.6H497z M497,719.6"/>
</g>
<g id="Instagram">
	
		<linearGradient id="SVGID_3_" gradientUnits="userSpaceOnUse" x1="359.75" y1="2.8042" x2="359.75" y2="714.9145" gradientTransform="matrix(1 0 0 -1 4.811054e-07 720)">
		<stop  offset="0" style="stop-color:#E09B3D"/>
		<stop  offset="0.3" style="stop-color:#C74C4D"/>
		<stop  offset="0.6" style="stop-color:#C21975"/>
		<stop  offset="1" style="stop-color:#7024C4"/>
	</linearGradient>
	<path fill="url(#SVGID_3_)" d="M505.2-0.5H214.3C96-0.5-0.1,95.7-0.1,213.9v290.9c0,118.2,96.2,214.4,214.4,214.4h290.9
		c118.2,0,214.4-96.2,214.4-214.4V213.9C719.6,95.7,623.5-0.5,505.2-0.5z M647.2,504.9c0,78.4-63.6,142-142,142H214.3
		c-78.4,0-142-63.6-142-142V213.9c0-78.4,63.6-142,142-142h290.9c78.4,0,142,63.6,142,142V504.9L647.2,504.9z"/>
	
		<linearGradient id="SVGID_4_" gradientUnits="userSpaceOnUse" x1="359.75" y1="2.8042" x2="359.75" y2="714.9145" gradientTransform="matrix(1 0 0 -1 4.811054e-07 720)">
		<stop  offset="0" style="stop-color:#E09B3D"/>
		<stop  offset="0.3" style="stop-color:#C74C4D"/>
		<stop  offset="0.6" style="stop-color:#C21975"/>
		<stop  offset="1" style="stop-color:#7024C4"/>
	</linearGradient>
	<path fill="url(#SVGID_4_)" d="M359.8,173.2c-102.7,0-186.2,83.5-186.2,186.2s83.5,186.2,186.2,186.2S545.9,462,545.9,359.4
		S462.4,173.2,359.8,173.2z M359.8,473.1c-62.8,0-113.8-50.9-113.8-113.8s50.9-113.8,113.8-113.8c62.8,0,113.8,50.9,113.8,113.8
		C473.5,422.2,422.6,473.1,359.8,473.1z"/>
	
		<linearGradient id="SVGID_5_" gradientUnits="userSpaceOnUse" x1="546.2755" y1="2.8042" x2="546.2755" y2="714.9145" gradientTransform="matrix(1 0 0 -1 4.811054e-07 720)">
		<stop  offset="0" style="stop-color:#E09B3D"/>
		<stop  offset="0.3" style="stop-color:#C74C4D"/>
		<stop  offset="0.6" style="stop-color:#C21975"/>
		<stop  offset="1" style="stop-color:#7024C4"/>
	</linearGradient>
	<circle fill="url(#SVGID_5_)" cx="546.3" cy="174.6" r="44.6"/>
</g>
<g id="Twitter_1_">
	<path id="Twitter" fill="#03A9F4" d="M720,136c-26.8,11.8-55.3,19.5-85.1,23.3c30.6-18.3,54-47,65-81.6c-28.5,17-60.1,29-93.7,35.8
		c-27.1-28.9-65.7-46.7-107.9-46.7c-81.8,0-147.6,66.4-147.6,147.7c0,11.7,1,23,3.4,33.7c-122.8-6-231.5-64.8-304.5-154.5
		c-12.7,22.1-20.2,47.4-20.2,74.7c0,51.2,26.3,96.5,65.6,122.8c-23.7-0.5-47-7.3-66.7-18.2c0,0.5,0,1,0,1.6
		c0,71.8,51.2,131.4,118.3,145.1c-12,3.3-25.1,4.9-38.7,4.9c-9.5,0-19-0.5-28-2.5c19.1,58.5,73.4,101.5,138,102.9
		c-50.3,39.3-114.1,63-183.1,63c-12.1,0-23.7-0.5-35.3-2c65.4,42.2,143,66.3,226.6,66.3c271.8,0,420.4-225.2,420.4-420.3
		c0-6.5-0.2-12.8-0.5-19.1C675.3,191.9,699.9,165.9,720,136z"/>
</g>
<g id="YouTube">
	<path fill="#F61C0D" d="M570.4,104.5H149.1c-82.6,0-149.6,67-149.6,149.6v210.6c0,82.6,67,149.6,149.6,149.6h421.2
		c82.6,0,149.6-67,149.6-149.6V254.1C720,171.5,653,104.5,570.4,104.5z M469.2,369.6l-197,94c-5.2,2.5-11.3-1.3-11.3-7.1V262.7
		c0-5.9,6.2-9.7,11.5-7.1l197,99.8C475.2,358.4,475.1,366.8,469.2,369.6z"/>
</g>
<g id="Snapchat">
	<path fill="#050505" d="M359.5,77.3c88.5,0,162.1,73.7,162.2,162.3c0,20.8,0.7,39.9,1.8,57.5c0.7,10.9,9.8,18.9,20.1,18.9
		c1.5,0,3.1-0.2,4.6-0.5l27.7-6.5c1.2-0.3,2.4-0.4,3.5-0.4c7,0,13.5,4.8,15.1,11.9c2.2,10.1-3.4,20.2-13.2,23.7l-42.1,17
		c-10.6,4.3-16.3,15.8-13.3,26.9c33.7,124.8,128,111.8,128,128c0,20.4-71,23.3-77.5,29.7c-6.4,6.4-0.3,37.6-14.6,43.6
		c-2.7,1.1-6.5,1.5-11.2,1.5c-10.8,0-26.1-2.1-42.2-2.1c-14,0-28.6,1.6-41.4,7.5c-34,15.7-66.8,45.1-107.5,45.1
		s-73.5-29.4-107.5-45.1c-12.8-5.9-27.4-7.5-41.4-7.5c-16.1,0-31.4,2.1-42.2,2.1c-4.7,0-8.5-0.4-11.2-1.5
		c-14.3-6-8.2-37.2-14.6-43.6c-6.4-6.4-77.5-9.3-77.5-29.7c0-16.3,94.3-3.3,128-128c3-11.1-2.7-22.6-13.3-26.9l-42.1-17
		c-9.8-3.4-15.4-13.6-13.2-23.7c1.6-7.1,8.1-11.9,15.1-11.9c1.2,0,2.4,0.1,3.5,0.4l27.7,6.5c1.6,0.4,3.1,0.5,4.6,0.5
		c10.4,0,19.4-8.1,20.1-18.9c1.2-17.6,1.8-36.7,1.8-57.5C197.9,151,271,77.4,359.5,77.3 M359.5,42.1L359.5,42.1L359.5,42.1
		c-26.4,0-52.1,5.3-76.5,15.8c-23.3,10-44.4,24.3-62.4,42.5c-18.1,18.2-32.3,39.2-42.3,62.7c-10.4,24.4-15.6,50.1-15.7,76.5
		c0,13-0.3,25.6-0.8,37.6l-10.3-2.4c-3.8-0.9-7.7-1.3-11.6-1.3c-11.2,0-22.3,3.8-31.2,10.7c-9.3,7.2-15.8,17.4-18.3,28.8
		c-6,27.1,9,54.5,34.9,64.1l30.9,12.5c-20.4,62.7-58.1,74.8-83.5,82.9c-6.7,2.1-12.6,4-18.1,6.8c-22.1,11-24.5,29.5-24.5,37
		c0,14.3,6.8,27.4,19.1,36.8c6.1,4.7,13.7,8.5,23.2,11.8c12.9,4.4,27.9,7.3,40.1,9.5c0.6,4.5,1.5,9.4,2.9,14.2
		c6,20.3,18.8,29.4,28.4,33.4c9.1,3.8,18.6,4.3,24.9,4.3c6.2,0,12.7-0.5,19.6-1c7.4-0.5,15.1-1.1,22.6-1.1c11.7,0,20.4,1.4,26.6,4.3
		c8.5,3.9,17.6,9.3,27.2,14.9c26.7,15.7,56.9,33.4,95.1,33.4s68.4-17.8,95.1-33.4c9.6-5.6,18.6-10.9,27.2-14.9
		c6.2-2.9,14.9-4.3,26.6-4.3c7.5,0,15.2,0.6,22.6,1.1c6.9,0.5,13.4,1,19.6,1c6.3,0,15.7-0.4,24.9-4.3c9.6-4,22.4-13.1,28.4-33.4
		c1.5-4.9,2.3-9.7,2.9-14.2c12.2-2.3,27.2-5.1,40.1-9.5c9.5-3.3,17.1-7.1,23.2-11.8c12.3-9.4,19.1-22.5,19.1-36.8
		c0-7.5-2.4-26-24.5-37c-5.5-2.7-11.4-4.6-18.1-6.8c-25.4-8.1-63.1-20.1-83.5-82.9l30.9-12.5c26-9.6,40.9-37,34.9-64.1
		c-2.5-11.4-9-21.6-18.3-28.8c-8.9-6.9-19.9-10.7-31.2-10.7c-3.9,0-7.8,0.5-11.6,1.3l-10.3,2.4c-0.5-12.1-0.8-24.6-0.8-37.6
		c0-26.4-5.3-52.2-15.8-76.6c-10-23.4-24.3-44.5-42.5-62.7c-18.2-18.2-39.2-32.5-62.6-42.5C411.6,47.5,385.9,42.2,359.5,42.1
		L359.5,42.1z"/>
</g>
<g id="TikTok">
	<path fill="#F00044" d="M266.8,371.4c-52,0-94,42-93.2,93.5c0.5,33,18.7,61.7,45.5,77.7c-9.1-14-14.5-30.5-14.7-48.3
		c-0.8-51.5,41.2-93.5,93.2-93.5c10.2,0,20.1,1.7,29.3,4.6V302.4c-9.6-1.4-19.5-2.2-29.3-2.2c-0.5,0-0.9,0-1.4,0V376
		C286.9,373.1,277.1,371.4,266.8,371.4L266.8,371.4z M266.8,371.4"/>
	<g>
		<defs>
			<rect id="SVGID_6_" x="71.2" y="31.6" width="577.1" height="655.6"/>
		</defs>
		<clipPath id="SVGID_7_">
			<use xlink:href="#SVGID_6_"  overflow="visible"/>
		</clipPath>
		<path clip-path="url(#SVGID_7_)" fill="#F00044" d="M491.6,62.3h-27.4c7.7,38.5,29.3,72.1,59.5,94.9
			C503.8,130.9,491.8,98.2,491.6,62.3L491.6,62.3z M491.6,62.3"/>
		<path clip-path="url(#SVGID_7_)" fill="#F00044" d="M648.3,219.2c-10.1,0-19.8-1-29.5-2.8v73.9c-34.8,0-68.6-6.8-100.4-20.4
			c-20.5-8.7-39.6-19.8-57.1-33.3l0.5,227.8c-0.3,51.2-20.5,99.2-57.1,135.5c-29.8,29.5-67.6,48.3-108.6,54.3
			c-9.6,1.4-19.5,2.2-29.3,2.2c-43.8,0-85.5-14.2-119.5-40.5c3.8,4.6,7.9,9.1,12.4,13.4c36.9,36.4,85.8,56.5,137.9,56.5
			c9.9,0,19.7-0.8,29.3-2.2c41-6,78.8-24.8,108.6-54.3c36.6-36.2,56.9-84.3,57.1-135.5L490.8,266c17.4,13.4,36.5,24.7,57.1,33.3
			c31.9,13.4,65.7,20.4,100.4,20.4"/>
	</g>
	<path fill="#08FFF9" d="M159.4,357c36.5-36.2,85-56.3,136.8-56.7V273c-9.6-1.4-19.5-2.2-29.3-2.2c-52.2,0-101.3,20.1-138.2,56.7
		c-36.2,36-57,85.2-56.8,136.2c0,51.5,20.4,99.8,57.1,136.2c5.9,5.8,11.9,11.1,18.3,16c-28.9-34.4-44.7-77.5-44.8-122.8
		C102.5,442.1,123.2,392.9,159.4,357L159.4,357z M159.4,357"/>
	<path fill="#08FFF9" d="M618.8,216.4V189h-0.3c-35.6,0-68.4-11.8-94.8-31.8C546.7,187.4,580.3,208.9,618.8,216.4L618.8,216.4z
		 M618.8,216.4"/>
	<path fill="#08FFF9" d="M292.3,585c12.2,0.6,23.8-1,34.6-4.5c37.1-12.2,63.9-46.7,63.9-87.5l0.1-152.4V62.3h73.2
		c-1.9-9.6-2.9-19.3-3.1-29.5H360.2v278.3l-0.1,152.4c0,40.7-26.8,75.3-63.9,87.5c-10.8,3.6-22.4,5.2-34.6,4.5
		c-15.5-0.9-30-5.5-42.5-12.9C234.8,566.8,261.7,583.4,292.3,585L292.3,585z M292.3,585"/>
	<path d="M296.2,654.2c41-6,78.8-24.8,108.6-54.3c36.6-36.2,56.8-84.3,57.1-135.5l-0.5-227.8c17.4,13.4,36.5,24.7,57.1,33.3
		c31.9,13.4,65.7,20.4,100.4,20.4v-73.9c-38.5-7.4-72.1-28.9-95-59.2c-30.2-22.8-52-56.3-59.5-94.9h-73.4v278.3L390.8,493
		c0,40.7-26.8,75.3-63.9,87.5c-10.8,3.6-22.4,5.2-34.6,4.5c-30.7-1.7-57.5-18.2-73.2-42.4c-26.8-15.9-45-44.7-45.5-77.7
		c-0.8-51.5,41.2-93.5,93.2-93.5c10.2,0,20.1,1.7,29.3,4.6v-75.8c-51.7,0.4-100.3,20.5-136.8,56.7c-36.2,36-57,85.2-56.8,136.1
		c0,45.3,15.7,88.4,44.8,122.8c34.1,26.3,75.7,40.5,119.5,40.5C276.7,656.3,286.5,655.6,296.2,654.2L296.2,654.2z M296.2,654.2"/>
</g>
<g id="Website">
	<path d="M669,307.3l-36-36c-7.1-7.1-15.7-11.9-25.1-14.6c-31-130-149-223.8-283.3-223.8C164,32.9,33.3,163.6,33.3,324.3
		c0,136.6,94.1,253.4,225.7,283.7c2.7,9,7.3,17.6,14.5,24.7l36,36c10.5,10.5,24.5,16.6,39.4,17.2c0.7,0,1.4,0,2.1,0
		c15.6,0,30.6-6.2,41.6-17.2l65.8-65.8c21.4-21.4,22.6-55.3,3.9-78.4l63.6-63.6c10.5,8.2,23.1,12.5,35.8,12.5
		c15.1,0,30.1-5.7,41.6-17.2l65.8-65.8c11.1-11.1,17.2-25.9,17.2-41.6C686.2,333.1,680.1,318.4,669,307.3z M570.5,386.5
		c-1.7-4.6-4.4-9.1-8.6-13.4c-4-4-8.3-6.7-12.7-8.4l19.4-19.4c2.1-2.1,4.7-3.1,7.4-3.1c2.7,0,5.4,1,7.4,3.1l6.6,6.6
		c4.1,4.1,4.1,10.8,0,14.9L570.5,386.5z M530.2,383.8c3.9-1,11-1.7,16.9,4.2c6.7,6.7,4.9,15,3.8,18.2L411.7,545.3
		c-3.3,1.1-11.5,2.9-18.2-3.8c-5.9-5.9-5.2-13-4.2-16.9L530.2,383.8z M370.3,543.7c1.7,4.3,4.4,8.7,8.4,12.7c4.2,4.2,8.7,7,13.3,8.7
		l-17.7,17.7c-4,4-10.9,4-14.9,0l-6.6-6.6c-4.1-4.1-4.1-10.8,0-14.9L370.3,543.7z M313.1,54.3c0.3,0,0.7,0,1,0v146.6
		c-37.7-0.9-70.1-6.8-96.8-14.9C248.1,100.6,301,62.2,313.1,54.3z M433.3,189.4c-27.2,8.2-57.6,11.4-98.1,11.7V54.4
		c0.5,0,0.9,0,1.4,0.1C349.6,63,403,102.2,433.3,189.4z M454.2,334.8c-0.9,40.2-6.4,77.8-16.9,112l-5.5,5.5
		c-25.7-6.8-55.4-10-96.6-10.3V334.8h14v-21.1h-14v-91.6c42.8-0.4,75.2-3.8,104.5-12.7c8.3,29.7,13.9,64.3,14.7,104.3h-84.1v21.1
		H454.2z M314.1,442.3c-38.4,0.9-71.5,6.6-99.1,14.6c-11.3-33.5-19-73.9-20-122h119.1V442.3z M314.1,221.9v91.8H195
		c0.9-41.5,6.9-77.1,15.8-107.6C239.2,214.8,273.8,221,314.1,221.9z M173.9,313.8H54.6C56.9,254.4,78.4,200,113,156.4
		c11.1,9.1,36.7,27.7,77.4,42.9C181,231.7,174.8,269.6,173.9,313.8z M173.9,334.8c1,50.5,9.1,93,21,128.4
		c-35.5,12.6-60.1,28.1-74.2,38.5c-39.4-45.3-63.5-103.6-65.9-167H173.9z M202.2,483.1c16.3,40.2,37.2,70,56.6,91.4
		c-1.1,3.7-1.8,7.5-2.1,11.3c-46.9-12.1-88.4-36.1-121.5-68.6C148.4,508,170.7,494.4,202.2,483.1z M273.4,549.5
		c-1.6,1.6-2.8,3.4-4.1,5.1c-16.3-19.1-33.2-44.6-46.9-77.8c25.7-7.3,56.3-12.6,91.7-13.4v45.5L273.4,549.5z M335.2,463.1
		c32.9,0.4,57.9,2.4,79.1,6.8l-4.5,4.5c-22.8-13-51.7-9.6-70.6,9.3l-4.1,4.1L335.2,463.1L335.2,463.1z M466.5,417.7
		c1.4-6.7,2.6-13.5,3.7-20.4c1.3,4,3,7.8,5.2,11.5L466.5,417.7z M474.9,349.4c0.2-4.8,0.4-9.7,0.5-14.6h10.9l-2.3,2.3
		C480.3,340.8,477.4,345,474.9,349.4z M475.4,313.8c-0.9-42.8-6.7-79.8-15.6-111.4c24.8-10.2,48.6-25,76-46.1
		c22.9,28.5,40.1,61.8,49.9,98.4c-13.5,1.3-26.1,6.9-35.8,16.7L507.2,314v-0.2L475.4,313.8L475.4,313.8z M522,140.2
		c-24.9,19.1-46.3,32.6-68.5,41.9c-21.1-61.2-53.1-100.4-77.2-122.9C432.6,70.3,483.5,99.2,522,140.2z M273.3,58.9
		c-23.7,22.1-55.2,60.3-76.4,120c-36.9-14-60.4-30.7-70.2-38.6C165.1,99.2,216,70,273.3,58.9z M443.5,588l-65.8,65.8
		c-7.5,7.5-17.5,11.3-28.1,11c-9.5-0.4-18.5-4.3-25.3-11l-36-36c-14.7-14.7-14.7-38.7,0-53.4l65.8-65.8c10.7-10.7,26.4-13.7,40-8.5
		l-22.8,22.8l0,0c0,0,0,0.1,0,0.1l-33.4,33.4c-12.3,12.3-12.3,32.4,0,44.7l6.6,6.6c6,6,13.9,9.3,22.3,9.3s16.4-3.3,22.3-9.3
		l58.3-58.3C457.9,554.1,456.7,574.7,443.5,588z M654.1,375.5l-65.8,65.8c-12.9,12.9-32.9,14.5-47.6,4.7l64.3-64.3
		c12.3-12.3,12.3-32.4,0-44.7l-6.6-6.6c-12.3-12.3-32.4-12.3-44.7,0l-35.2,35.2c0,0-0.1,0-0.1,0l0,0l-27.5,27.5
		c-5.8-13.7-3.1-30.2,8.1-41.3l65.8-65.8c14.3-14.3,39.1-14.3,53.4,0l36,36c7.1,7.1,11,16.6,11,26.7
		C665.2,358.9,661.2,368.4,654.1,375.5z"/>
</g>
</svg>
