<?xml version="1.0" encoding="utf-8"?>
<!-- Generator: Adobe Illustrator 24.2.3, SVG Export Plug-In . SVG Version: 6.00 Build 0)  -->
<svg version="1.1" id="Layer_1" xmlns="http://www.w3.org/2000/svg" xmlns:xlink="http://www.w3.org/1999/xlink" x="0px" y="0px"
	 viewBox="0 0 720 720" style="enable-background:new 0 0 720 720;" xml:space="preserve">
<style type="text/css">
	.st0{fill:#6A2774;}
	.st1{fill:#FFFFFF;}
</style>
<rect x="0.1" y="0.4" class="st0" width="720" height="720"/>
<g>
	<path class="st1" d="M242.3,317.6H225v-43c0-16.5-13.4-29.9-29.9-29.9h-43v-17.3c0-16.5-13.4-29.9-29.9-29.9h-2.3
		c-16.5,0-29.9,13.4-29.9,29.9v17.3h-43c-16.5,0-29.9,13.4-29.9,29.9v43h17.3c16.5,0,29.9,13.4,29.9,29.9v2.3
		c0,16.5-13.4,29.9-29.9,29.9H16.9v43c0,16.5,13.4,29.9,29.9,29.9h43v-17.3c0-16.5,13.4-29.9,29.9-29.9h2.3
		c16.5,0,29.9,13.4,29.9,29.9v17.3h43c16.5,0,29.9-13.4,29.9-29.9v-43h17.3c16.5,0,29.9-13.4,29.9-29.9v-2.3
		C272.2,331,258.8,317.6,242.3,317.6z"/>
</g>
<g>
	<path class="st1" d="M538,192.8c3.9,82.9,45.7,155.8,108.5,202l18.4-60.7c-39-35.4-64.5-85.3-68-141.3H538z"/>
	<path class="st1" d="M454.2,192.8c4.3,120.9,69.9,226.3,166.7,285.8l17.8-58.6C565.9,369.7,517,287,513.1,192.8H454.2z"/>
	<path class="st1" d="M370.4,192.8c3.5,123.1,58.5,233.4,144,310.5h98.9C506.6,440,433.6,325,429.3,192.8H370.4z"/>
	<path class="st1" d="M261.7,192.8H203c0.3,16,1.3,31.8,2.8,47.5c14.6,4.6,25.2,18.2,25.2,34.3v37h11.3c19.8,0,35.9,16.1,35.9,35.9
		v2.3c0,19.8-16.1,35.9-35.9,35.9h-3.4c15.1,41.4,34.6,80.7,57.9,117.3h71.4C303.5,416.1,264.3,308.9,261.7,192.8z"/>
	<path class="st1" d="M286.6,192.8c2.8,117.2,44.6,224.8,113,310.3l26.6-62.7c-48.7-70.7-78.3-155.8-80.7-247.6H286.6z"/>
	<path class="st1" d="M621.8,192.8c3,44.3,21.9,84.4,51.1,114.4l34.6-114.4H621.8z"/>
</g>
</svg>
