<svg enable-background="new 0 0 720 720" viewBox="0 0 720 720" xmlns="http://www.w3.org/2000/svg" xmlns:xlink="http://www.w3.org/1999/xlink"><clipPath id="a"><path d="m-.2.1h720.5v720.5h-720.5z"/></clipPath><path clip-path="url(#a)" d="m680.5.1h-641c-21.9.1-39.7 17.9-39.7 39.8v641c0 21.9 17.8 39.7 39.8 39.7h641c22 0 39.8-17.8 39.8-39.8v-641c-.1-21.9-17.9-39.7-39.9-39.7zm0 0" fill="#4267b2"/><path d="m497.3 720.6v-278.6h93.9l14.1-109.1h-108v-69.5c0-31.5 8.7-53 53.9-53h57.3v-97.3c-10-1.3-44.1-4.3-83.9-4.3-83 0-139.8 50.7-139.8 143.7v80.3h-93.6v109.2h93.6v278.6zm0 0" fill="#fff"/></svg>