<svg enable-background="new 0 0 720 720" viewBox="0 0 720 720" xmlns="http://www.w3.org/2000/svg" xmlns:xlink="http://www.w3.org/1999/xlink"><linearGradient id="a"><stop offset="0" stop-color="#e09b3d"/><stop offset=".3" stop-color="#c74c4d"/><stop offset=".6" stop-color="#c21975"/><stop offset="1" stop-color="#7024c4"/></linearGradient><linearGradient id="b" gradientTransform="matrix(1 0 0 -1 0 722)" gradientUnits="userSpaceOnUse" x1="360.0611" x2="360.0611" xlink:href="#a" y1="3.8077" y2="715.918"/><linearGradient id="c" gradientTransform="matrix(1 0 0 -1 0 722)" gradientUnits="userSpaceOnUse" x1="546.5865" x2="546.5865" xlink:href="#a" y1="3.8077" y2="715.918"/><path d="m505.5.5h-290.9c-118.2 0-214.4 96.2-214.4 214.4v290.9c0 118.2 96.2 214.4 214.4 214.4h290.9c118.2 0 214.4-96.2 214.4-214.4v-290.9c.1-118.2-96.1-214.4-214.4-214.4zm142 505.4c0 78.4-63.6 142-142 142h-290.9c-78.4 0-142-63.6-142-142v-291c0-78.4 63.6-142 142-142h290.9c78.4 0 142 63.6 142 142z" fill="url(#b)"/><path d="m360.1 174.2c-102.7 0-186.2 83.5-186.2 186.2s83.5 186.2 186.2 186.2 186.1-83.6 186.1-186.2-83.5-186.2-186.1-186.2zm0 299.9c-62.8 0-113.8-50.9-113.8-113.8s50.9-113.8 113.8-113.8c62.8 0 113.8 50.9 113.8 113.8-.1 62.9-51 113.8-113.8 113.8z" fill="url(#b)"/><circle cx="546.6" cy="175.6" fill="url(#c)" r="44.6"/></svg>