<svg enable-background="new 0 0 720 720" viewBox="0 0 720 720" xmlns="http://www.w3.org/2000/svg"><path d="m359.8 78.3c88.5 0 162.1 73.7 162.2 162.3 0 20.8.7 39.9 1.8 57.5.7 10.9 9.8 18.9 20.1 18.9 1.5 0 3.1-.2 4.6-.5l27.7-6.5c1.2-.3 2.4-.4 3.5-.4 7 0 13.5 4.8 15.1 11.9 2.2 10.1-3.4 20.2-13.2 23.7l-42.1 17c-10.6 4.3-16.3 15.8-13.3 26.9 33.7 124.8 128 111.8 128 128 0 20.4-71 23.3-77.5 29.7-6.4 6.4-.3 37.6-14.6 43.6-2.7 1.1-6.5 1.5-11.2 1.5-10.8 0-26.1-2.1-42.2-2.1-14 0-28.6 1.6-41.4 7.5-34 15.7-66.8 45.1-107.5 45.1s-73.5-29.4-107.5-45.1c-12.8-5.9-27.4-7.5-41.4-7.5-16.1 0-31.4 2.1-42.2 2.1-4.7 0-8.5-.4-11.2-1.5-14.3-6-8.2-37.2-14.6-43.6s-77.5-9.3-77.5-29.7c0-16.3 94.3-3.3 128-128 3-11.1-2.7-22.6-13.3-26.9l-42.1-17c-9.8-3.4-15.4-13.6-13.2-23.7 1.6-7.1 8.1-11.9 15.1-11.9 1.2 0 2.4.1 3.5.4l27.7 6.5c1.6.4 3.1.5 4.6.5 10.4 0 19.4-8.1 20.1-18.9 1.2-17.6 1.8-36.7 1.8-57.5.6-88.6 73.7-162.3 162.2-162.3m0-35.2c-26.4 0-52.1 5.3-76.5 15.8-23.3 10-44.4 24.3-62.4 42.5-18.1 18.2-32.3 39.2-42.3 62.7-10.4 24.4-15.6 50.1-15.7 76.5 0 13-.3 25.6-.8 37.6l-10.3-2.4c-3.8-.9-7.7-1.3-11.6-1.3-11.2 0-22.3 3.8-31.2 10.7-9.3 7.2-15.8 17.4-18.3 28.8-6 27.1 9 54.5 34.9 64.1l30.9 12.5c-20.4 62.7-58.1 74.8-83.5 82.9-6.7 2.1-12.6 4-18.1 6.8-22.1 11-24.5 29.5-24.5 37 0 14.3 6.8 27.4 19.1 36.8 6.1 4.7 13.7 8.5 23.2 11.8 12.9 4.4 27.9 7.3 40.1 9.5.6 4.5 1.5 9.4 2.9 14.2 6 20.3 18.8 29.4 28.4 33.4 9.1 3.8 18.6 4.3 24.9 4.3 6.2 0 12.7-.5 19.6-1 7.4-.5 15.1-1.1 22.6-1.1 11.7 0 20.4 1.4 26.6 4.3 8.5 3.9 17.6 9.3 27.2 14.9 26.7 15.7 56.9 33.4 95.1 33.4s68.4-17.8 95.1-33.4c9.6-5.6 18.6-10.9 27.2-14.9 6.2-2.9 14.9-4.3 26.6-4.3 7.5 0 15.2.6 22.6 1.1 6.9.5 13.4 1 19.6 1 6.3 0 15.7-.4 24.9-4.3 9.6-4 22.4-13.1 28.4-33.4 1.5-4.9 2.3-9.7 2.9-14.2 12.2-2.3 27.2-5.1 40.1-9.5 9.5-3.3 17.1-7.1 23.2-11.8 12.3-9.4 19.1-22.5 19.1-36.8 0-7.5-2.4-26-24.5-37-5.5-2.7-11.4-4.6-18.1-6.8-25.4-8.1-63.1-20.1-83.5-82.9l30.9-12.5c26-9.6 40.9-37 34.9-64.1-2.5-11.4-9-21.6-18.3-28.8-8.9-6.9-19.9-10.7-31.2-10.7-3.9 0-7.8.5-11.6 1.3l-10.3 2.4c-.5-12.1-.8-24.6-.8-37.6 0-26.4-5.3-52.2-15.8-76.6-10-23.4-24.3-44.5-42.5-62.7s-39.2-32.5-62.6-42.5c-24.5-10.4-50.2-15.7-76.6-15.7z" fill="#050505"/></svg>