<svg enable-background="new 0 0 720 720" viewBox="0 0 720 720" xmlns="http://www.w3.org/2000/svg" xmlns:xlink="http://www.w3.org/1999/xlink"><clipPath id="a"><path d="m71.5 32.6h577.1v655.6h-577.1z"/></clipPath><g fill="#f00044"><path d="m267.1 372.4c-52 0-94 42-93.2 93.5.5 33 18.7 61.7 45.5 77.7-9.1-14-14.5-30.5-14.7-48.3-.8-51.5 41.2-93.5 93.2-93.5 10.2 0 20.1 1.7 29.3 4.6v-103c-9.6-1.4-19.5-2.2-29.3-2.2-.5 0-.9 0-1.4 0v75.8c-9.3-2.9-19.1-4.6-29.4-4.6zm0 0"/><path clip-path="url(#a)" d="m491.9 63.3h-27.4c7.7 38.5 29.3 72.1 59.5 94.9-19.8-26.3-31.9-59-32.1-94.9zm0 0"/><path clip-path="url(#a)" d="m648.6 220.2c-10.1 0-19.8-1-29.5-2.8v73.9c-34.8 0-68.6-6.8-100.4-20.4-20.5-8.7-39.6-19.8-57.1-33.3l.5 227.8c-.3 51.2-20.5 99.2-57.1 135.5-29.8 29.5-67.6 48.3-108.6 54.3-9.6 1.4-19.5 2.2-29.3 2.2-43.8 0-85.5-14.2-119.5-40.5 3.8 4.6 7.9 9.1 12.4 13.4 36.9 36.4 85.8 56.5 137.9 56.5 9.9 0 19.7-.8 29.3-2.2 41-6 78.8-24.8 108.6-54.3 36.6-36.2 56.9-84.3 57.1-135.5l-1.8-227.8c17.4 13.4 36.5 24.7 57.1 33.3 31.9 13.4 65.7 20.4 100.4 20.4"/></g><path d="m159.7 358c36.5-36.2 85-56.3 136.8-56.7v-27.3c-9.6-1.4-19.5-2.2-29.3-2.2-52.2 0-101.3 20.1-138.2 56.7-36.2 36-57 85.2-56.8 136.2 0 51.5 20.4 99.8 57.1 136.2 5.9 5.8 11.9 11.1 18.3 16-28.9-34.4-44.7-77.5-44.8-122.8.1-51 20.7-100.2 56.9-136.1zm0 0" fill="#08fff9"/><path d="m619.2 217.4v-27.4h-.3c-35.6 0-68.4-11.8-94.8-31.8 23 30.2 56.5 51.7 95.1 59.2zm0 0" fill="#08fff9"/><path d="m292.6 586c12.2.6 23.8-1 34.6-4.5 37.1-12.2 63.9-46.7 63.9-87.5l.1-152.4v-278.3h73.2c-1.9-9.6-2.9-19.3-3.1-29.5h-100.8v278.3l-.1 152.4c0 40.7-26.8 75.3-63.9 87.5-10.8 3.6-22.4 5.2-34.6 4.5-15.5-.9-30-5.5-42.5-12.9 15.7 24.2 42.6 40.8 73.2 42.4zm0 0" fill="#08fff9"/><path d="m296.5 655.2c41-6 78.8-24.8 108.6-54.3 36.6-36.2 56.8-84.3 57.1-135.5l-.5-227.8c17.4 13.4 36.5 24.7 57.1 33.3 31.9 13.4 65.7 20.4 100.4 20.4v-73.9c-38.5-7.4-72.1-28.9-95-59.2-30.2-22.8-52-56.3-59.5-94.9h-73.4v278.3l-.2 152.4c0 40.7-26.8 75.3-63.9 87.5-10.8 3.6-22.4 5.2-34.6 4.5-30.7-1.7-57.5-18.2-73.2-42.4-26.8-15.9-45-44.7-45.5-77.7-.8-51.5 41.2-93.5 93.2-93.5 10.2 0 20.1 1.7 29.3 4.6v-75.8c-51.7.4-100.3 20.5-136.8 56.7-36.2 36-57 85.2-56.8 136.1 0 45.3 15.7 88.4 44.8 122.8 34.1 26.3 75.7 40.5 119.5 40.5 9.9 0 19.8-.7 29.4-2.1zm0 0"/></svg>