<svg enable-background="new 0 0 720 720" viewBox="0 0 720 720" xmlns="http://www.w3.org/2000/svg"><path d="m720.3 137c-26.8 11.8-55.3 19.5-85.1 23.3 30.6-18.3 54-47 65-81.6-28.5 17-60.1 29-93.7 35.8-27.1-28.9-65.7-46.7-107.9-46.7-81.8 0-147.6 66.4-147.6 147.7 0 11.7 1 23 3.4 33.7-122.8-6.1-231.4-64.9-304.4-154.6-12.7 22.1-20.2 47.4-20.2 74.7 0 51.2 26.3 96.5 65.6 122.8-23.7-.5-47-7.3-66.7-18.2v1.6c0 71.8 51.2 131.4 118.3 145.1-12 3.3-25.1 4.9-38.7 4.9-9.5 0-19-.5-28-2.5 19.1 58.5 73.4 101.5 138 102.9-50.3 39.3-114.1 63-183.1 63-12.1 0-23.7-.5-35.3-2 65.4 42.2 143 66.3 226.6 66.3 271.8 0 420.4-225.2 420.4-420.3 0-6.5-.2-12.8-.5-19.1 29.2-20.9 53.8-46.9 73.9-76.8z" fill="#03a9f4"/></svg>