<svg enable-background="new 0 0 720 720" viewBox="0 0 720 720" xmlns="http://www.w3.org/2000/svg"><path d="m669.3 308.3-36-36c-7.1-7.1-15.7-11.9-25.1-14.6-31-130-149-223.8-283.3-223.8-160.7 0-291.4 130.7-291.4 291.4 0 136.6 94.1 253.4 225.7 283.7 2.7 9 7.3 17.6 14.5 24.7l36 36c10.5 10.5 24.5 16.6 39.4 17.2h2.1c15.6 0 30.6-6.2 41.6-17.2l65.8-65.8c21.4-21.4 22.6-55.3 3.9-78.4l63.6-63.6c10.5 8.2 23.1 12.5 35.8 12.5 15.1 0 30.1-5.7 41.6-17.2l65.8-65.8c11.1-11.1 17.2-25.9 17.2-41.6s-6.1-30.4-17.2-41.5zm-98.4 79.2c-1.7-4.6-4.4-9.1-8.6-13.4-4-4-8.3-6.7-12.7-8.4l19.4-19.4c2.1-2.1 4.7-3.1 7.4-3.1s5.4 1 7.4 3.1l6.6 6.6c4.1 4.1 4.1 10.8 0 14.9zm-40.4-2.7c3.9-1 11-1.7 16.9 4.2 6.7 6.7 4.9 15 3.8 18.2l-139.2 139.1c-3.3 1.1-11.5 2.9-18.2-3.8-5.9-5.9-5.2-13-4.2-16.9zm-159.9 159.9c1.7 4.3 4.4 8.7 8.4 12.7 4.2 4.2 8.7 7 13.3 8.7l-17.7 17.7c-4 4-10.9 4-14.9 0l-6.6-6.6c-4.1-4.1-4.1-10.8 0-14.9zm-57.2-489.4h1v146.6c-37.7-.9-70.1-6.8-96.8-14.9 30.9-85.4 83.7-123.8 95.8-131.7zm120.2 135.1c-27.2 8.2-57.6 11.4-98.1 11.7v-146.7c.5 0 .9 0 1.4.1 13 8.5 66.4 47.7 96.7 134.9zm20.9 145.4c-.9 40.2-6.4 77.8-16.9 112l-5.5 5.5c-25.7-6.8-55.4-10-96.6-10.3v-107.2h14v-21.1h-14v-91.6c42.8-.4 75.2-3.8 104.5-12.7 8.3 29.7 13.9 64.3 14.7 104.3h-84.1v21.1zm-140.1 107.5c-38.4.9-71.5 6.6-99.1 14.6-11.3-33.5-19-73.9-20-122h119.1zm0-220.4v91.8h-119.1c.9-41.5 6.9-77.1 15.8-107.6 28.4 8.7 63 14.9 103.3 15.8zm-140.2 91.9h-119.3c2.3-59.3 23.8-113.8 58.4-157.4 11.1 9.1 36.7 27.7 77.4 42.9-9.4 32.4-15.6 70.3-16.5 114.5zm0 21c1 50.5 9.1 93 21 128.4-35.5 12.6-60.1 28.1-74.2 38.5-39.4-45.3-63.5-103.6-65.9-167h119.1zm28.3 148.3c16.3 40.2 37.2 70 56.6 91.4-1.1 3.7-1.8 7.5-2.1 11.3-46.9-12.1-88.4-36.1-121.5-68.6 13.2-9.2 35.5-22.8 67-34.1zm71.3 66.4c-1.6 1.6-2.8 3.4-4.1 5.1-16.3-19.1-33.2-44.6-46.9-77.8 25.7-7.3 56.3-12.6 91.7-13.4v45.5zm61.7-86.4c32.9.4 57.9 2.4 79.1 6.8l-4.5 4.5c-22.8-13-51.7-9.6-70.6 9.3l-4.1 4.1zm131.3-45.4c1.4-6.7 2.6-13.5 3.7-20.4 1.3 4 3 7.8 5.2 11.5zm8.4-68.3c.2-4.8.4-9.7.5-14.6h10.9l-2.3 2.3c-3.7 3.7-6.6 7.9-9.1 12.3zm.5-35.6c-.9-42.8-6.7-79.8-15.6-111.4 24.8-10.2 48.6-25 76-46.1 22.9 28.5 40.1 61.8 49.9 98.4-13.5 1.3-26.1 6.9-35.8 16.7l-42.7 42.6v-.2zm46.6-173.6c-24.9 19.1-46.3 32.6-68.5 41.9-21.1-61.2-53.1-100.4-77.2-122.9 56.3 11.1 107.2 40 145.7 81zm-248.6-81.3c-23.7 22.1-55.2 60.3-76.4 120-36.9-14-60.4-30.7-70.2-38.6 38.3-41.1 89.2-70.3 146.6-81.4zm170.1 529.1-65.8 65.7c-7.5 7.5-17.5 11.3-28.1 11-9.5-.4-18.5-4.3-25.3-11l-36-36c-14.7-14.7-14.7-38.7 0-53.4l65.8-65.8c10.7-10.7 26.4-13.7 40-8.5l-22.8 22.8v.1l-33.4 33.4c-12.3 12.3-12.3 32.4 0 44.7l6.6 6.6c6 6 13.9 9.3 22.3 9.3s16.4-3.3 22.3-9.3l58.3-58.3c10.5 14.8 9.3 35.4-3.9 48.7zm210.6-212.5-65.8 65.8c-12.9 12.9-32.9 14.5-47.6 4.7l64.3-64.3c12.3-12.3 12.3-32.4 0-44.7l-6.6-6.6c-12.3-12.3-32.4-12.3-44.7 0l-35.2 35.2h-.1l-27.5 27.5c-5.8-13.7-3.1-30.2 8.1-41.3l65.8-65.8c14.3-14.3 39.1-14.3 53.4 0l36 36c7.1 7.1 11 16.6 11 26.7 0 10.2-4 19.7-11.1 26.8z"/></svg>